# xmcd
#
# Track frame offsets:
#	150
#	18210
#	33876
#	49983
#	68406
#	83053
#	97097
#
# Disc length: 1477 seconds
#
# Revision: 1
# Processed by: cddbd v1.5.2PL0 Copyright (c) Steve Scherf et al.
# Submitted via: audiograbber 1.83.01
#
DISCID=4b05c307
DTITLE=Various Artist - City Buzz Country
DYEAR=2005
DGENRE=Country
TTITLE0=She Thinks She Needs Me (Andy Griggs)
TTITLE1=The Best Man (Blaine Larsen)
TTITLE2=In A Real Love (Phil Vassar)
TTITLE3=The Love Song (Jeff Bates)
TTITLE4=Love Changes Everything (Aaron Lines)
TTITLE5=Pickin' Wildflowers (Keith Anderson)
TTITLE6=Down This Road (The Wrights)
EXTD=
EXTT0=
EXTT1=
EXTT2=
EXTT3=
EXTT4=
EXTT5=
EXTT6=
PLAYORDER=
